<svg aria-hidden="true" style="position: absolute; width: 0; height: 0; overflow: hidden;" version="1.1" xmlns="http://www.w3.org/2000/svg" xmlns:xlink="http://www.w3.org/1999/xlink">
<defs>
<symbol id="facebook" viewBox="0 0 33 32">
<path d="M16.414 0c-8.822 0-16 7.178-16 16s7.178 16 16 16c8.822 0 16-7.178 16-16s-7.177-16-16-16zM20.394 16.563h-2.603v9.278h-3.857c0 0 0-5.070 0-9.278h-1.834v-3.279h1.834v-2.121c0-1.519 0.722-3.893 3.893-3.893l2.858 0.011v3.183c0 0-1.737 0-2.075 0s-0.818 0.169-0.818 0.893v1.927h2.939l-0.337 3.278z"></path>
</symbol>
<symbol id="mb-menu" viewBox="0 0 43 32">
<path stroke-linejoin="miter" stroke-linecap="round" stroke-miterlimit="4" stroke-width="4.8" d="M3.2 3.2h38.4"></path>
<path stroke-linejoin="miter" stroke-linecap="round" stroke-miterlimit="4" stroke-width="4.8" d="M3.2 16h38.4"></path>
<path stroke-linejoin="miter" stroke-linecap="round" stroke-miterlimit="4" stroke-width="4.8" d="M3.2 28.8h38.4"></path>
</symbol>
<symbol id="instagram" viewBox="0 0 33 32">
<path d="M16.414 18.528c1.396 0 2.528-1.132 2.528-2.528s-1.132-2.528-2.528-2.528c-1.396 0-2.528 1.132-2.528 2.528s1.132 2.528 2.528 2.528z"></path>
<path d="M19.648 9.611h-6.467c-0.838 0-1.641 0.333-2.233 0.925s-0.925 1.395-0.925 2.233v6.465c0 0.838 0.333 1.641 0.925 2.233s1.395 0.925 2.233 0.925h6.467c0.838 0 1.641-0.333 2.233-0.925s0.925-1.395 0.925-2.233v-6.467c-0.001-0.837-0.334-1.64-0.926-2.232s-1.395-0.924-2.232-0.924zM16.415 20.139c-0.819 0-1.619-0.242-2.3-0.696s-1.212-1.101-1.525-1.857c-0.314-0.756-0.396-1.588-0.236-2.392s0.553-1.541 1.132-2.12c0.579-0.579 1.316-0.973 2.119-1.133s1.635-0.078 2.392 0.235 1.403 0.844 1.858 1.524c0.455 0.681 0.698 1.481 0.698 2.3-0.001 1.097-0.437 2.149-1.213 2.925s-1.827 1.213-2.924 1.214zM20.577 12.884c-0.203 0-0.401-0.059-0.569-0.172s-0.3-0.272-0.378-0.459-0.098-0.393-0.059-0.592c0.039-0.199 0.137-0.381 0.28-0.524s0.326-0.241 0.524-0.28c0.199-0.039 0.405-0.019 0.592 0.059s0.347 0.209 0.459 0.378c0.112 0.169 0.172 0.367 0.172 0.569-0.001 0.271-0.108 0.53-0.3 0.721s-0.451 0.299-0.721 0.3z"></path>
<path d="M16.414 0c-3.165 0-6.258 0.938-8.889 2.696s-4.682 4.257-5.893 7.181c-1.211 2.924-1.528 6.141-0.91 9.244s2.141 5.955 4.379 8.192c2.238 2.238 5.089 3.762 8.192 4.379s6.321 0.3 9.244-0.91c2.924-1.211 5.422-3.262 7.181-5.893s2.696-5.725 2.696-8.889c0-4.243-1.686-8.313-4.686-11.314s-7.070-4.686-11.314-4.686zM24.414 19.234c-0.001 1.264-0.504 2.475-1.397 3.369s-2.105 1.396-3.369 1.397h-6.467c-1.264-0.002-2.475-0.504-3.368-1.398s-1.396-2.105-1.398-3.368v-6.467c0.002-1.264 0.504-2.475 1.398-3.368s2.105-1.396 3.368-1.398h6.467c1.264 0.002 2.475 0.504 3.368 1.398s1.396 2.105 1.398 3.368v6.467z"></path>
</symbol>
<symbol id="linkedin" viewBox="0 0 33 32">
<path d="M28.051 0h-23.273c-1.157 0-2.267 0.46-3.086 1.278s-1.278 1.928-1.278 3.086v23.273c0 1.157 0.46 2.267 1.278 3.086s1.928 1.278 3.086 1.278h23.273c1.157 0 2.267-0.46 3.086-1.278s1.278-1.928 1.278-3.086v-23.273c0-1.157-0.46-2.267-1.278-3.086s-1.928-1.278-3.086-1.278zM11.324 25.324c0 0.089-0.017 0.177-0.051 0.259s-0.083 0.157-0.146 0.219c-0.063 0.063-0.137 0.113-0.219 0.147s-0.17 0.052-0.259 0.052h-2.874c-0.089 0-0.177-0.017-0.259-0.051s-0.157-0.084-0.22-0.147c-0.063-0.063-0.113-0.137-0.147-0.22s-0.051-0.17-0.051-0.259v-12.051c0-0.179 0.071-0.351 0.198-0.478s0.299-0.198 0.478-0.198h2.875c0.179 0 0.351 0.072 0.477 0.199s0.197 0.299 0.197 0.478v12.051zM9.211 11.455c-0.539 0-1.067-0.16-1.515-0.46s-0.798-0.726-1.004-1.224-0.26-1.047-0.155-1.576c0.105-0.529 0.365-1.015 0.746-1.396s0.867-0.641 1.396-0.746c0.529-0.105 1.077-0.051 1.576 0.155s0.924 0.556 1.224 1.004 0.46 0.976 0.46 1.515c0 0.723-0.287 1.417-0.799 1.928s-1.205 0.799-1.928 0.799zM26.349 25.371c0 0.082-0.016 0.163-0.047 0.238s-0.077 0.144-0.135 0.202c-0.058 0.058-0.126 0.104-0.202 0.135s-0.157 0.047-0.238 0.047h-3.091c-0.082 0-0.163-0.016-0.238-0.047s-0.144-0.077-0.202-0.135c-0.058-0.058-0.104-0.126-0.135-0.202s-0.047-0.156-0.047-0.238v-5.645c0-0.844 0.247-3.695-2.206-3.695-1.9 0-2.287 1.951-2.364 2.827v6.52c0 0.163-0.064 0.32-0.179 0.437s-0.27 0.183-0.434 0.185h-2.985c-0.082 0-0.162-0.016-0.238-0.047s-0.144-0.077-0.201-0.135-0.103-0.126-0.134-0.202c-0.031-0.075-0.047-0.156-0.047-0.238v-12.158c-0-0.082 0.016-0.162 0.047-0.238s0.077-0.144 0.134-0.202c0.058-0.058 0.126-0.104 0.201-0.135s0.156-0.047 0.238-0.047h2.985c0.165 0 0.323 0.066 0.44 0.182s0.182 0.275 0.182 0.44v1.051c0.705-1.060 1.751-1.874 3.982-1.874 4.942 0 4.909 4.614 4.909 7.149l0.004 5.825z"></path>
</symbol>
</defs>
</svg>
