<svg aria-hidden="true" style="position:absolute;width:0;height:0" xmlns="http://www.w3.org/2000/svg" overflow="hidden"><defs><symbol id="facebook" viewBox="0 0 33 32"><path d="M16.414 0c-8.822 0-16 7.178-16 16s7.178 16 16 16 16-7.178 16-16-7.177-16-16-16zm3.98 16.563h-2.603v9.278h-3.857v-9.278H12.1v-3.279h1.834v-2.121c0-1.519.722-3.893 3.893-3.893l2.858.011v3.183H18.61c-.338 0-.818.169-.818.893v1.927h2.939l-.337 3.278z"/></symbol><symbol id="mb-menu" viewBox="0 0 43 32"><path stroke-linecap="round" stroke-width="4.8" d="M3.2 3.2h38.4M3.2 16h38.4M3.2 28.8h38.4"/></symbol><symbol id="instagram" viewBox="0 0 33 32"><path d="M16.414 18.528a2.528 2.528 0 100-5.056 2.528 2.528 0 000 5.056z"/><path d="M19.648 9.611h-6.467a3.158 3.158 0 00-3.158 3.158v6.465a3.158 3.158 0 003.158 3.158h6.467a3.158 3.158 0 003.158-3.158v-6.467a3.162 3.162 0 00-3.158-3.156zm-3.233 10.528a4.132 4.132 0 01-4.061-4.945 4.137 4.137 0 017.501-1.494 4.14 4.14 0 01-3.439 6.439zm4.162-7.255c-.203 0-.401-.059-.569-.172s-.3-.272-.378-.459a1.025 1.025 0 01.745-1.396 1.025 1.025 0 011.223 1.006 1.02 1.02 0 01-1.021 1.021z"/><path d="M16.414 0A15.998 15.998 0 005.101 27.313 15.998 15.998 0 0032.414 16a15.997 15.997 0 00-16-16zm8 19.234A4.773 4.773 0 0119.648 24h-6.467a4.77 4.77 0 01-4.766-4.766v-6.467a4.77 4.77 0 014.766-4.766h6.467a4.77 4.77 0 014.766 4.766v6.467z"/></symbol><symbol id="linkedin" viewBox="0 0 33 32"><path d="M28.051 0H4.778A4.36 4.36 0 00.414 4.364v23.273a4.36 4.36 0 004.364 4.364h23.273a4.36 4.36 0 004.364-4.364V4.364A4.36 4.36 0 0028.051 0zM11.324 25.324a.676.676 0 01-.675.677H7.775a.676.676 0 01-.677-.677V13.273a.676.676 0 01.676-.676h2.875a.673.673 0 01.674.677v12.051zM9.211 11.455a2.724 2.724 0 01-2.519-1.684 2.733 2.733 0 01.591-2.972 2.725 2.725 0 014.196.413 2.724 2.724 0 01-.339 3.443 2.73 2.73 0 01-1.928.799zm17.138 13.916a.623.623 0 01-.622.622h-3.091a.623.623 0 01-.622-.622v-5.645c0-.844.247-3.695-2.206-3.695-1.9 0-2.287 1.951-2.364 2.827v6.52a.623.623 0 01-.613.622h-2.985a.627.627 0 01-.439-.182.625.625 0 01-.181-.44V13.22a.627.627 0 01.382-.575.623.623 0 01.238-.047h2.985a.626.626 0 01.622.622v1.051c.705-1.06 1.751-1.874 3.982-1.874 4.942 0 4.909 4.614 4.909 7.149l.004 5.825z"/></symbol></defs></svg>